<?xml version="1.0" encoding="UTF-8" standalone="no" ?>
<!DOCTYPE svg PUBLIC "-//W3C//DTD SVG 1.1//EN" "http://www.w3.org/Graphics/SVG/1.1/DTD/svg11.dtd">
<svg xmlns="http://www.w3.org/2000/svg" xmlns:xlink="http://www.w3.org/1999/xlink" version="1.1" width="30" height="30" viewBox="0 0 30 30" xml:space="preserve">
<desc>Created with Fabric.js 5.2.4</desc>
<defs>
</defs>
<rect x="0" y="0" width="100%" height="100%" fill="transparent"></rect>
<g transform="matrix(1 0 0 1 15 15)" id="9f32b2e3-21b4-441f-938f-766dd8fd3f1a"  >
<rect style="stroke: none; stroke-width: 1; stroke-dasharray: none; stroke-linecap: butt; stroke-dashoffset: 0; stroke-linejoin: miter; stroke-miterlimit: 4; fill: rgb(255,255,255); fill-rule: nonzero; opacity: 1; visibility: hidden;" vector-effect="non-scaling-stroke"  x="-15" y="-15" rx="0" ry="0" width="30" height="30" />
</g>
<g transform="matrix(Infinity NaN NaN Infinity 0 0)" id="c8787d8b-fb11-42d6-8f92-c01919210ee4"  >
</g>
<g transform="matrix(0.97 0 0 0.97 15 15)" id="5827324b-8291-4348-b5cc-e3161d98fc54"  >
<path style="stroke: rgb(0,0,0); stroke-width: 0; stroke-dasharray: none; stroke-linecap: butt; stroke-dashoffset: 0; stroke-linejoin: miter; stroke-miterlimit: 4; fill: rgb(255,255,255); fill-rule: nonzero; opacity: 1;" vector-effect="non-scaling-stroke"  transform=" translate(-12, -12)" d="M 22 3 L 2 3 C 0.91 3.04 0.04 3.91 0 5 L 0 19 C 0.04 20.09 0.91 20.96 2 21 L 22 21 C 23.09 20.96 23.96 20.09 24 19 L 24 5 C 23.96 3.91 23.09 3.04 22 3 M 22 19 L 2 19 L 2 5 L 22 5 L 22 19 M 14 17 L 14 15.75 C 14 14.09 10.66 13.25 9 13.25 C 7.34 13.25 4 14.09 4 15.75 L 4 17 L 14 17 M 9 7 C 7.619288125423017 7 6.5 8.119288125423017 6.5 9.5 C 6.5 10.880711874576983 7.619288125423017 12 9 12 C 10.380711874576983 12 11.5 10.880711874576983 11.5 9.5 C 11.5 8.119288125423017 10.380711874576983 7 9 7 M 14 7 L 14 8 L 20 8 L 20 7 L 14 7 M 14 9 L 14 10 L 20 10 L 20 9 L 14 9 M 14 11 L 14 12 L 18 12 L 18 11 L 14 11" stroke-linecap="round" />
</g>
</svg>